<!--Copyright (c) Microsoft Corporation. All rights reserved.-->
<!--Copyright (C) 2020 TypeFox and others.-->
<!--Licensed under the MIT License. See License.txt in the project root for license information.-->
<svg width="24" height="24" viewBox="0 0 24 24" fill="none" xmlns="http://www.w3.org/2000/svg">
<path d="M15.25 1.02546e-06C13.6605 -0.000791296 12.1046 0.457574 10.7694 1.32007C9.43422 2.18256 8.37657 3.4124 7.72375 4.8617C7.07094 6.31099 6.85077 7.91801 7.0896 9.4895C7.32843 11.061 8.01604 12.5301 9.06995 13.72L1 22.88L2.12 23.88L10.17 14.76C11.2055 15.5693 12.4192 16.1196 13.7103 16.365C15.0014 16.6104 16.3325 16.5437 17.5927 16.1707C18.8528 15.7976 20.0055 15.1288 20.955 14.2201C21.9044 13.3114 22.623 12.1891 23.0509 10.9465C23.4789 9.70396 23.6038 8.37703 23.4153 7.07642C23.2267 5.77581 22.7302 4.53915 21.967 3.46924C21.2039 2.39933 20.1962 1.52711 19.0278 0.925416C17.8595 0.323719 16.5642 0.00991516 15.25 0.0100108V1.02546e-06ZM15.25 15C13.915 15 12.6099 14.6041 11.4999 13.8624C10.3898 13.1207 9.52469 12.0665 9.01379 10.8331C8.5029 9.59973 8.36919 8.24248 8.62964 6.93311C8.89009 5.62373 9.53305 4.42106 10.4771 3.47705C11.4211 2.53305 12.6237 1.89009 13.9331 1.62964C15.2425 1.36919 16.5997 1.5029 17.8331 2.01379C19.0665 2.52469 20.1207 3.38985 20.8624 4.49988C21.6041 5.60991 22 6.91498 22 8.25C22 10.0402 21.2888 11.7571 20.0229 13.023C18.7571 14.2888 17.0402 15 15.25 15Z" fill="#C5C5C5"/>
</svg>
