<!--Copyright (c) Microsoft Corporation. All rights reserved.-->
<!--Copied from https://raw.githubusercontent.com/microsoft/vscode-codicons/53f3bf9bbfb2bf25a179f35902cc98e52194f55e/src/icons/pinned-dirty.svg with color modification -->
<svg width="16" height="16" viewBox="0 0 16 16" xmlns="http://www.w3.org/2000/svg" fill="#424242"><path fill-rule="evenodd" clip-rule="evenodd" d="M4 2h7v.278c0 .406-.086.778-.258 1.117-.172.339-.42.63-.742.875v2.86c.307.145.583.328.828.546a3.7 3.7 0 0 1 .54.598 4.92 4.92 0 0 0-.896.412l-.007.004-.03.018a2.456 2.456 0 0 0-1.099-.774L9 7.817V3.715l.297-.18c.094-.057.177-.122.25-.195a2.28 2.28 0 0 0 .21-.242.968.968 0 0 0 .157-.32H5.086c.042.125.094.232.156.32a1.494 1.494 0 0 0 .461.43L6 3.715v4.102l-.336.117c-.411.146-.76.383-1.047.711C4.331 8.973 4.09 9.573 4 10h5.002a5.025 5.025 0 0 0-.481.778H8V14l-.5 1-.5-1v-3.222H3v-.5c0-.339.047-.664.14-.977.094-.312.227-.607.4-.883A3.404 3.404 0 0 1 5 7.13V4.27a2.561 2.561 0 0 1-.734-.875A2.505 2.505 0 0 1 4 2.278V2zm7.485 8.41a2.924 2.924 0 0 1 .718-.302c.256-.072.522-.108.797-.108s.541.036.797.108a2.956 2.956 0 0 1 1.321.773 2.956 2.956 0 0 1 .774 1.322c.072.256.108.522.108.797s-.036.541-.108.797a2.953 2.953 0 0 1-.774 1.324 3.013 3.013 0 0 1-1.321.774c-.256.07-.522.105-.797.105s-.541-.035-.797-.105a3.037 3.037 0 0 1-1.324-.774 3.037 3.037 0 0 1-.773-1.324A2.994 2.994 0 0 1 10 13c0-.275.035-.541.105-.797a3.013 3.013 0 0 1 .883-1.425c.154-.14.32-.262.497-.368z"/></svg>
