<!--Copyright (c) Microsoft Corporation. All rights reserved.-->
<!--Copyright (C) 2020 TypeFox and others.-->
<!--Licensed under the MIT License. See License.txt in the project root for license information.-->
<svg width="16" height="16" viewBox="0 0 16 16" fill="none" xmlns="http://www.w3.org/2000/svg">
<path fill-rule="evenodd" clip-rule="evenodd" d="M3.221 3.739L5.482 6.008L7.7 3.784L7 3.084L5.988 4.091L5.98 2.491C5.97909 2.35567 6.03068 2.22525 6.12392 2.12716C6.21716 2.02908 6.3448 1.97095 6.48 1.965H8V1H6.48C6.28496 1.00026 6.09189 1.03902 5.91186 1.11405C5.73183 1.18908 5.56838 1.29892 5.43088 1.43725C5.29338 1.57558 5.18455 1.73969 5.11061 1.92018C5.03667 2.10066 4.99908 2.29396 5 2.489V4.1L3.927 3.033L3.221 3.739ZM9.89014 5.53277H9.90141C10.0836 5.84426 10.3521 6 10.707 6C11.0995 6 11.4131 5.83236 11.6479 5.49708C11.8826 5.1618 12 4.71728 12 4.16353C12 3.65304 11.8995 3.2507 11.6986 2.95652C11.4977 2.66234 11.2113 2.51525 10.8394 2.51525C10.4338 2.51525 10.1211 2.70885 9.90141 3.09604H9.89014V1H9V5.91888H9.89014V5.53277ZM9.87606 4.47177V4.13108C9.87606 3.88449 9.93427 3.6844 10.0507 3.53082C10.169 3.37724 10.3174 3.30045 10.4958 3.30045C10.6854 3.30045 10.831 3.37833 10.9324 3.53407C11.0357 3.68765 11.0873 3.9018 11.0873 4.17651C11.0873 4.50746 11.031 4.76379 10.9183 4.94549C10.8075 5.12503 10.6507 5.2148 10.4479 5.2148C10.2808 5.2148 10.1437 5.14449 10.0366 5.00389C9.92958 4.86329 9.87606 4.68592 9.87606 4.47177ZM11 8H4V14H11V8Z" fill="#424242"/>
</svg>
