<svg xmlns="http://www.w3.org/2000/svg" width="1000" height="1000">
<!--
/********************************************************************************
 * Copyright (C) 2019 Ericsson and others.
 *
 * This program and the accompanying materials are made available under the
 * terms of the Eclipse Public License v. 2.0 which is available at
 * http://www.eclipse.org/legal/epl-2.0.
 *
 * This Source Code may also be made available under the following Secondary
 * Licenses when the conditions for such availability set forth in the Eclipse
 * Public License v. 2.0 are satisfied: GNU General Public License, version 2
 * with the GNU Classpath Exception which is available at
 * https://www.gnu.org/software/classpath/license.html.
 *
 * SPDX-License-Identifier: EPL-2.0 OR GPL-2.0 WITH Classpath-exception-2.0
 ********************************************************************************/
-->
<!--Created with Method Draw - http://github.com/duopixel/Method-Draw/-->
    <g>
        <rect id="canvas_background" width="1002" height="1002" x="-1" y="-1" fill="none"/>
        <g id="canvasGrid" width="100%" height="100%" x="0" y="0" display="none" overflow="visible">
            <rect width="100%" height="100%" x="0" y="0" fill="url(#gridpattern)" stroke-width="0"/>
        </g>
    </g>
    <g>
        <ellipse id="svg_1" cx="500" cy="500" fill="#000000" stroke="#ffffff" stroke-width="0" rx="400" ry="400"/>
        <g id="svg_11">
            <g id="svg_5" fill="#FFFFFF">
                <path id="svg_7" d="m654.970093,359.310364c75.099365,0 135.929932,63.007935 135.929932,140.794861c0,77.734314 -60.830566,140.7948 -135.929321,140.7948l-299.633667,0c-10.713898,0 -19.396729,-8.993652 -19.396729,-20.091003c0,-11.097412 8.682831,-20.091003 19.396729,-20.091003l69.817993,0c10.663147,0 19.345978,-8.993591 19.345978,-20.091003c0,-11.097412 -8.682831,-20.091064 -19.345978,-20.091064l-15.538177,0c-10.713379,0 -19.39621,-8.993591 -19.39621,-20.090942c0,-11.097351 8.682831,-20.091003 19.396729,-20.091003l46.563812,0c10.772278,-0.031067 19.127594,-9.125122 19.395203,-20.091034c0,-11.097351 -8.682831,-20.091003 -19.396729,-20.091003l-162.942596,0c-10.713898,0 -19.396729,-8.993652 -19.396729,-20.091003c0,-11.097382 8.682831,-20.091034 19.396729,-20.091034l120.241394,0c10.771759,-0.031036 19.127075,-9.125061 19.394653,-20.091003c0,-11.097351 -8.6828,-20.091003 -19.396729,-20.091003l-27.114746,0c-10.713928,0 -19.396759,-8.993591 -19.396759,-20.090973c0,-11.097412 8.682831,-20.616974 19.396759,-20.616974l268.608459,0.210388zm-21.731812,46.914124l0,0c-41.738525,0 -75.505005,35.02771 -75.505005,78.207642l0,31.293579c0,43.232483 33.766479,78.207642 75.505005,78.207642c41.687622,0 75.505005,-34.975159 75.505005,-78.207642l0,-31.293579c0,-43.179932 -33.817383,-78.207642 -75.505005,-78.207642l0,0zm25.794556,73.947479c10.053711,0 18.228882,8.467682 18.228882,18.881348l0,2.419342c0,10.413635 -8.175171,18.881348 -18.228882,18.881348l-56.66687,0c-10.053833,0 -18.22876,-8.467712 -18.22876,-18.881348l0,-2.419342c0,-10.413666 8.174927,-18.881348 18.22876,-18.881348l56.66687,0z"/>
                <path id="svg_8" d="m294.404938,600.718018c10.104584,0 18.228851,8.415039 18.228851,18.881348l0,2.419312c0,10.413696 -8.124268,18.881348 -18.228851,18.881348l-67.076096,0c-10.053802,0 -18.228867,-8.467651 -18.228867,-18.881348l0,-2.419312c0,-10.466309 8.175064,-18.881348 18.228867,-18.881348l67.076096,0z"/>
                <path id="svg_9" d="m325.480286,359.625946c10.053802,0 18.178101,8.467682 18.178101,18.881287l0,2.471924c0,10.413696 -8.124298,18.828766 -18.178101,18.828766l-74.895691,0c-10.053802,0 -18.228867,-8.41507 -18.228867,-18.828766l0,-2.471924c0,-10.413605 8.175064,-18.881287 18.228867,-18.881287l74.895691,0z"/>
                <path id="svg_10" d="m348.736053,520.354004c10.053772,0 18.228821,8.467651 18.228821,18.881287l0,2.419373c0,10.413635 -8.175049,18.881287 -18.228821,18.881287l-41.129181,0c-10.053772,0 -18.228851,-8.467651 -18.228851,-18.881287l0,-2.419373c0,-10.413635 8.175079,-18.881287 18.228851,-18.881287l41.129181,0z"/>
            </g>
        </g>
    </g>
</svg>
