<!-- /********************************************************************************
 * Copyright (C) 2021 Ericsson and others.
 *
 * This program and the accompanying materials are made available under the
 * terms of the Eclipse Public License v. 2.0 which is available at
 * http://www.eclipse.org/legal/epl-2.0.
 *
 * This Source Code may also be made available under the following Secondary
 * Licenses when the conditions for such availability set forth in the Eclipse
 * Public License v. 2.0 are satisfied: GNU General Public License, version 2
 * with the GNU Classpath Exception which is available at
 * https://www.gnu.org/software/classpath/license.html.
 *
 * SPDX-License-Identifier: EPL-2.0 OR GPL-2.0 WITH Classpath-exception-2.0
 ********************************************************************************/ -->

<svg width="369" height="369" viewBox="0 0 369 369" fill="none" xmlns="http://www.w3.org/2000/svg">
<path d="M131.8 253C125.933 253 121.133 252.8 117.4 252.4C113.8 252 109.933 251.2 105.8 250C101.4 248.8 97.8667 247.067 95.2 244.8C92.6667 242.4 90.5333 239.067 88.8 234.8C87.0667 230.8 86.2 225.8 86.2 219.8V154.2C86.2 148.2 87.0667 142.933 88.8 138.4C90.5333 133.867 92.8 130.267 95.6 127.6C98.1333 125.333 101.467 123.533 105.6 122.2C109.867 120.733 114.133 119.8 118.4 119.4C123.2 119.133 127.667 119 131.8 119C137.667 119 142.4 119.2 146 119.6C149.733 120 153.667 120.8 157.8 122C162.2 123.333 165.733 125.2 168.4 127.6C171.2 130 173.467 133.4 175.2 137.8C176.933 142.2 177.8 147.6 177.8 154V219.8C177.8 225.267 176.933 230.133 175.2 234.4C173.467 238.667 171.2 242 168.4 244.4C165.733 246.667 162.333 248.533 158.2 250C154.067 251.333 149.867 252.133 145.6 252.4C141.867 252.8 137.267 253 131.8 253ZM132.2 241.2C139.267 241.2 144.733 240.733 148.6 239.8C152.467 238.733 155.267 236.733 157 233.8C158.733 230.867 159.6 226.533 159.6 220.8V152.8C159.6 146.533 158.667 141.867 156.8 138.8C155.067 135.6 152.267 133.467 148.4 132.4C144.667 131.333 139.2 130.8 132 130.8C124.667 130.8 119.067 131.333 115.2 132.4C111.467 133.467 108.733 135.6 107 138.8C105.267 141.867 104.4 146.533 104.4 152.8V220.8C104.4 226.533 105.267 230.867 107 233.8C108.867 236.733 111.733 238.733 115.6 239.8C119.467 240.733 125 241.2 132.2 241.2ZM228.016 201.2L194.016 154.2H213.816L237.816 189.6L262.016 154.2H281.816L247.816 201.2L283.816 251H264.016L237.816 212.8L211.816 251H192.016L228.016 201.2Z" fill="black"/>
<path d="M35.7183 98.6009L184.5 12.7017L333.282 98.6008V270.399L184.5 356.298L35.7183 270.399V98.6009Z" stroke="black" stroke-width="22"/>
</svg>
