<svg width="82" height="82" viewBox="0 0 82 82" fill="none" xmlns="http://www.w3.org/2000/svg">
<path d="M19.1814 36.073H29.7694C30.9221 33.5499 32.9 31.4981 35.375 30.2582C37.85 29.0184 40.6731 28.6651 43.3758 29.257C46.0785 29.8488 48.4981 31.3502 50.2332 33.512C51.9682 35.6738 52.9142 38.3659 52.9142 41.1415C52.9142 43.9171 51.9682 46.6092 50.2332 48.771C48.4981 50.9328 46.0785 52.4342 43.3758 53.0261C40.6731 53.6179 37.85 53.2646 35.375 52.0248C32.9 50.7849 30.9221 48.7332 29.7694 46.21H19.1814C20.4211 51.5397 23.5708 56.226 28.0309 59.3766C32.491 62.5273 37.9501 63.9225 43.3689 63.2964C48.7878 62.6704 53.788 60.0669 57.4177 55.9816C61.0475 51.8963 63.0532 46.6144 63.0532 41.1415C63.0532 35.6686 61.0475 30.3867 57.4177 26.3014C53.788 22.2161 48.7878 19.6126 43.3689 18.9866C37.9501 18.3606 32.491 19.7557 28.0309 22.9064C23.5708 26.057 20.4211 30.7433 19.1814 36.073Z" fill="#1E293B"/>
<path fill-rule="evenodd" clip-rule="evenodd" d="M41.0848 10.1933C24.0721 10.1933 10.2805 24.0311 10.2805 41.101C10.2805 58.1708 24.072 72.0086 41.0848 72.0086C58.0976 72.0086 71.8892 58.1708 71.8892 41.101C71.8892 24.0311 58.0976 10.1933 41.0848 10.1933ZM0.763672 41.101C0.763672 18.7575 18.816 0.644531 41.0848 0.644531C63.3536 0.644531 81.406 18.7575 81.406 41.101C81.406 63.4444 63.3536 81.5574 41.0848 81.5574C18.816 81.5574 0.763672 63.4444 0.763672 41.101Z" fill="#1E293B"/>
<path d="M40.7841 46.015C43.3389 46.015 45.41 43.9737 45.41 41.4557C45.41 38.9377 43.3389 36.8965 40.7841 36.8965C38.2293 36.8965 36.1582 38.9377 36.1582 41.4557C36.1582 43.9737 38.2293 46.015 40.7841 46.015Z" fill="url(#paint0_linear_458_1134)"/>
<defs>
<linearGradient id="paint0_linear_458_1134" x1="36.1582" y1="63.6006" x2="45.9684" y2="63.4776" gradientUnits="userSpaceOnUse">
<stop stop-color="#6366F1"/>
<stop offset="1" stop-color="#863DFF"/>
</linearGradient>
</defs>
</svg>
