<svg width="81" height="82" viewBox="0 0 81 82" fill="none" xmlns="http://www.w3.org/2000/svg"
    stroke-width="1">
    <path
        d="M18.5086 36.073H29.0966C30.2492 33.5499 32.2272 31.4981 34.7021 30.2582C37.1771 29.0184 40.0003 28.6651 42.7029 29.257C45.4056 29.8488 47.8253 31.3502 49.5603 33.512C51.2953 35.6738 52.2414 38.3659 52.2414 41.1415C52.2414 43.9171 51.2953 46.6092 49.5603 48.771C47.8253 50.9328 45.4056 52.4342 42.7029 53.0261C40.0003 53.6179 37.1771 53.2646 34.7021 52.0248C32.2272 50.7849 30.2492 48.7332 29.0966 46.21H18.5086C19.7483 51.5397 22.898 56.226 27.3581 59.3766C31.8182 62.5273 37.2773 63.9225 42.6961 63.2964C48.1149 62.6704 53.1152 60.0669 56.7449 55.9816C60.3746 51.8963 62.3804 46.6144 62.3804 41.1415C62.3804 35.6686 60.3746 30.3867 56.7449 26.3014C53.1152 22.2161 48.1149 19.6126 42.6961 18.9866C37.2773 18.3606 31.8182 19.7557 27.3581 22.9064C22.898 26.057 19.7483 30.7433 18.5086 36.073Z"
        fill="white" />
    <path fill-rule="evenodd" clip-rule="evenodd"
        d="M40.412 10.1933C23.3992 10.1933 9.60766 24.0311 9.60766 41.101C9.60766 58.1708 23.3992 72.0086 40.412 72.0086C57.4247 72.0086 71.2163 58.1708 71.2163 41.101C71.2163 24.0311 57.4247 10.1933 40.412 10.1933ZM0.0908203 41.101C0.0908203 18.7575 18.1432 0.644531 40.412 0.644531C62.6808 0.644531 80.7332 18.7575 80.7332 41.101C80.7332 63.4444 62.6808 81.5574 40.412 81.5574C18.1432 81.5574 0.0908203 63.4444 0.0908203 41.101Z"
        fill="white" />
    <path
        d="M40.1112 46.015C42.666 46.015 44.7371 43.9737 44.7371 41.4557C44.7371 38.9377 42.666 36.8965 40.1112 36.8965C37.5564 36.8965 35.4854 38.9377 35.4854 41.4557C35.4854 43.9737 37.5564 46.015 40.1112 46.015Z"
        fill="url(#paint0_linear_458_1146)" />
    <defs>
        <linearGradient id="paint0_linear_458_1146" x1="35.4854" y1="63.6006" x2="45.2955"
            y2="63.4776" gradientUnits="userSpaceOnUse">
            <stop stop-color="#6366F1" />
            <stop offset="1" stop-color="#863DFF" />
        </linearGradient>
    </defs>
</svg>
