<!--Copyright (c) Microsoft Corporation. All rights reserved.-->
<!--Copyright (C) 2020 TypeFox and others.-->
<!--Licensed under the MIT License. See License.txt in the project root for license information.-->
<svg width="16" height="16" viewBox="0 0 16 16" fill="none" xmlns="http://www.w3.org/2000/svg">
<path fill-rule="evenodd" clip-rule="evenodd" d="M14.25 5.75001V1.75001H12.75V4.29161C11.605 2.93304 9.83899 2.08335 7.90914 2.08335C4.73316 2.08335 1.98941 4.39037 1.75072 7.48076L1.72992 7.75001H3.231L3.25287 7.5241C3.46541 5.32933 5.45509 3.58335 7.90914 3.58335C9.6452 3.58335 11.1528 4.45926 11.9587 5.75001H9.12986V7.25001H13.292L14.2535 6.27494V5.75001H14.25ZM7.99997 14C9.10454 14 9.99997 13.1046 9.99997 12C9.99997 10.8954 9.10454 10 7.99997 10C6.8954 10 5.99997 10.8954 5.99997 12C5.99997 13.1046 6.8954 14 7.99997 14Z" fill="#007ACC"/>
</svg>
