<svg xmlns="http://www.w3.org/2000/svg" viewBox="0 0 100 144"><linearGradient id="a" x1="2.062" x2="70.33" y1="18.63" y2="18.63" gradientUnits="userSpaceOnUse"><stop offset="0" stop-color="#c60d12"/><stop offset=".535" stop-color="#c30c11"/><stop offset="1" stop-color="#9c0a0c"/></linearGradient><path fill="url(#a)" stroke="#dadada" stroke-miterlimit="10" stroke-width=".25" d="M1.9 20.8c2.5 1.3 5.5 3 10.1 3 15.4 0 19.4-11.2 29.6-18.1 4-2.7 8.3-4.4 13.2-4.5 9.9-.3 15.5 5.6 15.5 14.1 0 4-1.5 8.4-3.6 11.7l-13.5-8h-1.3l-14.8 8.5c-3.9 2.2-8.8 5.2-11.2 6.6 11.3-7 13.3-20.2 26.5-23.3-11.3.3-15 10.3-21.3 15.8-2.7 2.4-6.6 4.8-12.3 4.9-9.1.3-14.1-5.4-16.9-10.7z"/><linearGradient id="b" x1="7.909" x2="98.63" y1="86.17" y2="86.17" gradientUnits="userSpaceOnUse"><stop offset="0" stop-color="#020203"/><stop offset="1" stop-color="#141414"/></linearGradient><path fill="url(#b)" d="M7.9 47.6 52.4 21l.1-.1h.1l46 26.5v62.2l-46.1 33.8-44.6-33.8z"/><path fill="#020203" d="M7.9 47.6 52.4 21l.1-.1v122.5L7.9 109.6z"/><linearGradient id="c" x1="22" x2="46.1" y1="98.42" y2="98.42" gradientUnits="userSpaceOnUse"><stop offset="0" stop-color="#414141"/><stop offset="1" stop-color="#202020"/></linearGradient><path fill="url(#c)" d="m22 71.4 2.6 29.9 21.5 26.4-3.7-40.6-13.9-7.5z"/><linearGradient id="d" x1="59.24" x2="83.47" y1="98.42" y2="98.42" gradientUnits="userSpaceOnUse"><stop offset="0" stop-color="#2a2a2a"/><stop offset="1" stop-color="#6d6d6d"/></linearGradient><path fill="url(#d)" d="m83.5 71.4-3.1 8.2L63 87.3l-3.8 40.4 21.2-26.2z"/><linearGradient id="e" x1="24.35" x2="80.95" y1="82.49" y2="82.49" gradientUnits="userSpaceOnUse"><stop offset="0" stop-color="#8f8f8f"/><stop offset="1" stop-color="#969696"/></linearGradient><path fill="url(#e)" d="m22 71.4 6.5 8.2 13.9 7.7v-.2l-8.2-4.4-5.7-3.1z"/><linearGradient id="f" x1="63" x2="83.5" y1="79.39" y2="79.39" gradientUnits="userSpaceOnUse"><stop offset="0" stop-color="#969696"/><stop offset="1" stop-color="gray"/></linearGradient><path fill="url(#f)" d="m83.5 71.4-7.1 8.2L63 86.8v.5l13.6-7.2z"/><path fill="#fff" d="M24.4 68.2c10.1-1.1 18.8-3.7 23.2-11.2 2.8-4.6 4.2-15.7 4.8-22.5.6 5.1 1.4 14.8 4 20.5 3.8 7.9 10.9 11 19.6 12.3l4.9.8C69.3 70.6 61.2 73 57.3 81.7c-3.4 7.8-3.7 35.1-4.8 55.1-1.1-20.3-1.4-47.5-4.9-55.3-3.8-8-10.5-10.7-23.2-13.3"/><linearGradient id="g" x1="60.77" x2="83.35" y1="78.38" y2="78.38" gradientUnits="userSpaceOnUse"><stop offset="0" stop-color="#020203"/><stop offset="1" stop-color="#121010"/></linearGradient><path fill="url(#g)" d="M83.5 68.3c-9.7 2-19.4 3.4-24.3 10.8-2 3.2-2.8 7-3.4 11.5 1.4-14.9 8.6-18.5 20.6-21l4.5-1.1z"/><linearGradient id="h" x1="24.35" x2="49.01" y1="82.01" y2="82.01" gradientUnits="userSpaceOnUse"><stop offset="0" stop-color="#020203"/><stop offset="1" stop-color="#090909"/></linearGradient><path fill="url(#h)" d="m24.4 68.2 2.8.5c12 2.3 19.1 5.6 21.4 15.7l.4 2.2C46.2 76.1 39.9 71 24.4 68.2"/><linearGradient id="i" x1="25.89" x2="70.39" y1="20.1" y2="20.1" gradientUnits="userSpaceOnUse"><stop offset="0" stop-color="#c60d12"/><stop offset=".535" stop-color="#c30c11"/><stop offset="1" stop-color="#a00a0b"/></linearGradient><path fill="url(#i)" d="M25.9 34.1c11.3-6.9 13.3-19.9 26.7-23.4-11 .3-15.4 10.5-21.5 15.9-3.2 2.8-7.1 4.8-12.3 4.9-7.9.1-13.4-3.2-16.9-10.5 2.6 1.4 5.5 2.7 10 2.7 15 0 19.6-11.1 29.7-18 3.7-2.5 7.9-4.3 13.1-4.5 8.4-.3 15.2 4.4 15.7 13.3.2 4.3-1.1 8.8-3.6 12.4l-13.6-8.1h-1.3l-14.8 8.5c-3.7 2.1-8.7 5.4-11.2 6.8"/></svg>
