<svg xmlns="http://www.w3.org/2000/svg" viewBox="0 0 64 64">
  <defs>
    <filter id="drop-shadow" x="-20%" y="-20%" width="140%" height="140%">
      <feGaussianBlur in="SourceAlpha" stdDeviation="1.5" result="blur"/>
      <feOffset dx="1" dy="1.5" result="offsetBlur"/>
      <feComponentTransfer>
        <feFuncA type="linear" slope="0.7"/>
      </feComponentTransfer>
      <feMerge>
        <feMergeNode in="offsetBlur"/>
        <feMergeNode in="SourceGraphic"/>
      </feMerge>
    </filter>
  </defs>
  <style type="text/css">
    .cls-0 { fill: #4D4D4D; }
    .cls-1 {
      fill: #4D4D4D;
      fill-opacity: 0.9;
      filter: url(#drop-shadow);
    }
  </style>
  <path class="cls-1" d="m55.8 22.3-0.5-0.2c-1.3-0.4-2-1.5-1.4-3.4 0.4-1 0.6-1.9 0.6-3-0.1-3.7-2.9-7.7-7.4-8.1-1.3-0.1-2.6 0.2-3.7 0.6-1.7 0.7-3 0.1-3.4-1.5-0.9-3.3-3.8-6.1-7.9-6.1-3.9 0-7.1 2.5-8.1 6.2-0.4 1.6-1.6 2-3.1 1.5-1.1-0.5-2.3-0.7-3.6-0.7-4.3 0.2-7.9 3.7-7.9 8 0 1.1 0.2 2 0.5 2.8 0.8 1.8 0.1 3.2-1.6 3.8-2.8 0.8-5.6 3.6-5.6 7.7 0 3.7 2.1 7.2 5.6 8.3 1.9 0.5 2.4 1.7 1.7 3.3-0.5 1.1-0.9 2.5-0.9 3.9 0.3 4.8 3.8 8.2 8.3 8.2 1.3 0 2.4-0.3 3.6-0.7 1.3-0.6 2.6-0.1 3.1 1.4 1.1 3.2 3.5 5.6 7.5 5.9 2.8 0.1 5.9-1.1 7.2-3.5 0.5-0.8 0.9-1.6 1.2-2.5 0.6-1.7 2.2-2.4 3.5-1.1l4.9 4.8 6-5.6 2.3-2.1 2.5-2.5-4.6-4.7c-0.8-0.7-0.9-1.3-0.9-2.2 0-1.2 0.7-2.2 1.8-2.5 1.2-0.4 2.1-0.8 3.5-2 1.3-1.4 2.4-3.2 2.4-5.9-0.1-3.4-2.3-6.8-5.6-8.1zm-11.2 15c-2.6 0.6-6.6 3-8 7.8-0.6 1.4-1.9 3.5-4.6 3.6-1.8 0-3.6-1.1-4.3-3.3-0.8-3-4.1-6.9-7.9-7.9-2.2-0.5-4.1-2.8-4.1-5.5 0-2.4 1.6-4.8 4.1-5.5 4.5-0.9 7.3-4.3 8-8.2 0.3-1.5 1.6-3.3 3.6-3.5 2.3-0.4 4.4 0.8 4.9 3.1 0.8 3.7 3.4 7.4 8 8.5 2.4 0.5 4.2 2.7 4.2 5.4 0 3.2-2.2 5-3.9 5.5z"/>
</svg>
